<?xml version="1.0" encoding="UTF-8"?>
<svg
   xmlns="http://www.w3.org/2000/svg"
   version="1.1"
   viewBox="0 0 451 306">

  <style>
    /* Default colors */
    .stone { fill:none; stroke:#8f8f8f; stroke-width:0.3; }
    .chakana { fill:none; stroke:#000; stroke-width:0.3; }
  </style>

  <g transform="matrix(100,0,0,100,-51.119383,-154.57935)">
    <!-- Stone graphic -->
    <ellipse class="stone"
       cx="3.7201111"
       cy="3.0745468"
       rx="1.1554693"
       ry="1.3786169" />
    <ellipse class="stone"
       cx="3.7261338"
       cy="3.0744069"
       rx="0.54507577"
       ry="0.6503424" />

    <!-- Chakana cross -->
    <path class="chakana"
       d="M 1.5175151,1.6957935 V 2.0319634 H 0.9973638 V 2.5531572 H 0.66119384 V 3.5955446 H 0.9973638 v 0.5211937 h 0.5201513 v 0.33617 h 1.0423875 v -0.33617 H 3.0821387 V 3.5955446 H 3.4183086 V 2.5531572 H 3.0821387 V 2.0319634 H 2.5599026 V 1.6957935 Z m 0.5222361,0.8573637 c 0.287699,0 0.5211937,0.2334947 0.5211937,0.5211937 0,0.2876989 -0.2334947,0.5211937 -0.5211937,0.5211937 -0.2876989,0 -0.5211937,-0.2334948 -0.5211937,-0.5211937 0,-0.287699 0.2334948,-0.5211937 0.5211937,-0.5211937 z" />
  </g>
</svg>
